<?xml version="1.0" encoding="UTF-8"?>
<svg width="69px" height="85px" viewBox="0 0 69 85" version="1.1" xmlns="http://www.w3.org/2000/svg" xmlns:xlink="http://www.w3.org/1999/xlink">
    <!-- Generator: Sketch 52.3 (67297) - http://www.bohemiancoding.com/sketch -->
    <title>Shape</title>
    <desc>Created with Sketch.</desc>
    <g id="Page-1" stroke="none" stroke-width="1" fill="none" fill-rule="evenodd">
        <g id="noun_PDF-File_532243" transform="translate(-15.000000, 0.000000)" fill="#FFFFFF" fill-rule="nonzero">
            <path d="M82.914,22.086 L61.914,1.086 C61.539,0.711 61.03,0.5 60.5,0.5 L24.5,0.5 C20.137,0.5 15.5,2.953 15.5,7.5 L15.5,75.5 C15.5,79.873 20.126,84.5 24.5,84.5 L76.5,84.5 C81.047,84.5 83.5,79.863 83.5,75.5 L83.5,23.5 C83.5,22.97 83.289,22.461 82.914,22.086 Z M61.5,6.328 L77.672,22.5 L66.5,22.5 C64.304,22.5 61.5,19.696 61.5,17.5 L61.5,6.328 Z M79.5,75.5 C79.5,77.516 78.547,80.5 76.5,80.5 L24.5,80.5 C22.304,80.5 19.5,77.695 19.5,75.5 L19.5,7.5 C19.5,5.453 22.483,4.5 24.5,4.5 L57.5,4.5 L57.5,17.5 C57.5,21.874 62.126,26.5 66.5,26.5 L79.5,26.5 L79.5,75.5 Z M60.094,48.354 C56.619,44.879 52.697,40.066 49.355,35.167 C50.116,31.313 50.501,28.398 50.501,26.5 C50.501,17.965 40.501,17.965 40.501,26.5 C40.501,28.173 42.048,31.369 45.103,36.006 C43.839,42.015 41.921,49.18 39.984,55.127 C35.63,57.033 32.64,58.783 31.088,60.336 C29.093,62.33 28.488,64.938 29.471,67.309 C30.358,69.45 32.373,70.887 34.487,70.887 C35.767,70.887 36.954,70.377 37.917,69.414 C38.469,68.861 40.115,67.217 43.212,58.101 C48.525,55.902 54.655,53.924 58.93,52.777 C62.796,56.332 65.935,58.062 68.503,58.062 C71.413,58.062 73.78,55.88 73.78,53.197 C73.78,51.537 72.829,50.024 71.171,49.045 C69.576,48.103 67.333,47.625 64.503,47.625 C63.608,47.625 62.129,47.87 60.094,48.354 Z M35.086,66.586 C34.816,66.856 34.613,66.887 34.484,66.887 C34.061,66.887 33.452,66.473 33.164,65.778 C32.915,65.178 32.843,64.237 33.914,63.165 C34.417,62.663 35.564,61.749 38.121,60.431 C36.719,64.084 35.672,66 35.086,66.586 Z M44.5,26.5 C44.5,24.755 45.162,24 45.5,24 C45.838,24 46.5,24.755 46.5,26.5 C46.5,27.374 46.387,28.606 46.17,30.119 C44.921,27.914 44.53,26.79 44.5,26.5 Z M44.79,53.171 C46.038,49.065 47.233,44.618 48.206,40.465 C50.621,43.753 53.212,46.9 55.674,49.533 C52.526,50.447 48.655,51.7 44.79,53.171 Z M69.777,53.197 C69.777,53.542 69.267,54.062 68.5,54.062 C67.934,54.062 66.507,53.784 63.811,51.687 C64.122,51.644 64.35,51.624 64.5,51.624 C67.26,51.624 68.588,52.165 69.134,52.488 C69.531,52.724 69.777,52.995 69.777,53.197 Z" id="Shape"></path>
        </g>
    </g>
</svg>