<?xml version="1.0" encoding="UTF-8"?>
<svg width="77px" height="100px" viewBox="0 0 77 100" version="1.1" xmlns="http://www.w3.org/2000/svg" xmlns:xlink="http://www.w3.org/1999/xlink">
    <!-- Generator: Sketch 52.3 (67297) - http://www.bohemiancoding.com/sketch -->
    <title>Group</title>
    <desc>Created with Sketch.</desc>
    <g id="Page-1" stroke="none" stroke-width="1" fill="none" fill-rule="evenodd">
        <g id="noun_Document_15351" fill="#FFFFFF">
            <g id="Group">
                <path d="M50.339,0 L46.804,0.075 L9.022,0.075 C4.038,0.075 0,4.108 0,9.088 L0,90.984 C0,95.965 4.038,100 9.022,100 L67.198,100 C72.18,100 76.218,95.965 76.218,90.983 L76.218,29.982 L76.222,26.447 L50.339,0 Z M68.202,90.983 C68.202,91.535 67.751,91.982 67.199,91.982 L9.022,91.982 C8.464,91.982 8.016,91.535 8.016,90.983 L8.016,9.088 C8.016,8.54 8.464,8.092 9.022,8.092 L46.804,8.092 L46.804,29.983 L68.201,29.983 L68.201,90.983 L68.202,90.983 Z" id="Shape" fill-rule="nonzero"></path>
                <polygon id="Path" points="47.125 80.28 58.191 80.28 43.642 58.79 55.734 40.927 44.668 40.927 38.109 50.618 31.55 40.927 20.48 40.927 32.576 58.79 18.028 80.28 28.601 80.28 29.09 80.28 42.074 80.28 38.161 73.927 33.393 73.927 38.109 66.961"></polygon>
            </g>
        </g>
    </g>
</svg>