<?xml version="1.0" encoding="UTF-8"?>
<svg width="25px" height="28px" viewBox="0 0 25 28" version="1.1" xmlns="http://www.w3.org/2000/svg" xmlns:xlink="http://www.w3.org/1999/xlink">
    <!-- Generator: Sketch 51.2 (57519) - http://www.bohemiancoding.com/sketch -->
    <title>Filter</title>
    <desc>Created with Sketch.</desc>
    <defs></defs>
    <g id="Page-1" stroke="none" stroke-width="1" fill="none" fill-rule="evenodd">
        <g id="filters" transform="translate(0.000000, 1.000000)" fill="#000000" fill-rule="nonzero" stroke="#000000">
            <path d="M0.84387,0.50555556 C0.662052,0.83055556 0.662052,1.19166667 0.880234,1.51666667 C0.880234,1.51666667 0.880234,1.55277778 0.916597,1.55277778 L9.789325,13.1805556 L9.789325,25.2777778 C9.789325,25.4944444 9.934779,25.7111111 10.116597,25.7833333 C10.189325,25.8194444 10.262052,25.8194444 10.334779,25.8194444 C10.480234,25.8194444 10.625688,25.7472222 10.734779,25.675 L15.171143,21.2333333 C15.280234,21.125 15.316597,20.9805556 15.316597,20.8361111 L15.316597,13.1805556 L24.189325,1.55277778 L24.225688,1.51666667 C24.407506,1.22777778 24.44387,0.83055556 24.262052,0.50555556 C24.080234,0.18055556 23.752961,0 23.389325,0 L1.716597,0 C1.352961,0 1.025688,0.21666667 0.84387,0.50555556 Z M23.171143,1.08333333 L14.371143,12.675 C14.298416,12.7833333 14.262052,12.8916667 14.262052,13 L14.262052,20.6194444 L10.880234,23.9777778 L10.880234,13 C10.880234,12.8916667 10.84387,12.7833333 10.771143,12.675 L1.934779,1.08333333 L23.171143,1.08333333 Z" id="Filter"></path>
        </g>
    </g>
</svg>