<?xml version="1.0" encoding="UTF-8"?>
<svg width="35px" height="15px" viewBox="0 0 35 15" version="1.1" xmlns="http://www.w3.org/2000/svg" xmlns:xlink="http://www.w3.org/1999/xlink">
    <!-- Generator: Sketch 52.3 (67297) - http://www.bohemiancoding.com/sketch -->
    <title>Shape</title>
    <desc>Created with Sketch.</desc>
    <g id="Page-1" stroke="none" stroke-width="1" fill="none" fill-rule="evenodd">
        <g id="Fishicon" transform="translate(-9.000000, -17.000000)" fill="#606060" fill-rule="nonzero" stroke="#606060">
            <path d="M43.2936267,30.2543445 C42.4165727,28.1281844 41.1074056,26.1964482 39.4318504,24.5355116 C41.0891727,22.8455413 42.3735487,20.8866157 43.2188933,18.7375702 C43.3300926,18.4547472 43.1783918,18.1400211 42.8801069,18.0345431 C42.5818221,17.9292018 42.2496658,18.0728677 42.1384666,18.3556908 C41.342704,20.3788322 40.1301065,22.2031093 38.6040181,23.7630767 C37.8145253,23.0696136 36.9559204,22.431144 36.0338246,21.8543625 C32.6236915,19.721166 28.6063948,18.6061327 24.4131108,18.6310675 C21.6117268,18.6573687 18.9069123,19.1901555 16.3737612,20.2147401 C13.9299009,21.2030497 11.7573004,22.6011111 9.91613551,24.369985 C9.80853964,24.4734135 9.74872412,24.6131855 9.75002133,24.7584226 C9.75131853,24.9036598 9.81351226,25.0424754 9.92298186,25.1441277 C11.7914601,26.8797323 13.9874103,28.2397424 16.4499359,29.1864483 C18.9998786,30.1668333 21.7119718,30.6538491 24.5097525,30.6321251 C28.7055589,30.6026131 32.7093069,29.4337477 36.0882351,27.2518428 C36.9962779,26.6655656 37.8403973,26.0190348 38.6154046,25.3189452 C40.1582126,26.8520649 41.3941597,28.6510655 42.2196139,30.6523462 C42.3086165,30.8680842 42.5262585,31 42.7567284,31 C42.8265612,31 42.8975471,30.9879083 42.9665151,30.9623586 C43.2631424,30.8524401 43.4095103,30.5354597 43.2936267,30.2543445 Z M24.4051239,29.9994085 C19.2746498,30.0367111 14.4815409,28.3084759 10.833334,25.1176471 C14.4314821,21.8611212 19.1990852,20.0486074 24.3251618,20.0004481 C29.5144165,19.9669732 34.3739284,21.8108741 37.9166674,24.9132486 C34.4223747,28.0606507 29.5928395,29.9628715 24.4051239,29.9994085 Z" id="Shape" transform="translate(26.541667, 24.500000) scale(-1, 1) translate(-26.541667, -24.500000) "></path>
        </g>
    </g>
</svg>