<?xml version="1.0" encoding="UTF-8"?>
<svg width="82px" height="82px" viewBox="0 0 82 82" version="1.1" xmlns="http://www.w3.org/2000/svg" xmlns:xlink="http://www.w3.org/1999/xlink">
    <!-- Generator: Sketch 52.3 (67297) - http://www.bohemiancoding.com/sketch -->
    <title>Shape</title>
    <desc>Created with Sketch.</desc>
    <g id="Page-1" stroke="none" stroke-width="1" fill="none" fill-rule="evenodd">
        <g id="noun_Globe_2065305" transform="translate(-9.000000, 1.000000)" fill="#4A4A4A" fill-rule="nonzero" stroke="#979797">
            <path d="M50,0 C27.9,0 10,17.9 10,40 C10,62.1 27.9,80 50,80 C72.1,80 90,62.1 90,40 C90,17.9 72.1,0 50,0 Z M40.5,64.1 C40.4,67.4 39.9,70.8 39,74 C38.8,74.5 38.7,75.1 38.5,75.6 C37.5,75.3 36.4,74.9 35.4,74.5 C31,72.6 27,69.9 23.5,66.5 C20,63.1 17.4,59.1 15.5,54.6 C13.6,50 12.6,45.1 12.6,40.1 C12.6,35.8 13.3,31.6 14.8,27.6 C15,27.8 15.3,28.1 15.4,28.4 C15.7,29.1 15.5,30 15.4,30.8 C15.4,32.5 16.4,33.9 17.5,35.1 C18.8,36.5 20,37.9 20.6,39.8 C20.8,40.4 21.1,41.2 21.7,41.4 C22.1,41.5 22.5,41.4 22.8,41.5 C23,41.6 23.2,41.9 23.3,42.1 C24.5,43.8 27.2,44.2 29.2,44.5 C29.9,44.6 30.7,44.7 31.2,45.1 C32.2,46 32.5,47.4 33.6,48 C34.7,48.6 36.1,49.4 36.1,50.8 C36.1,51.6 35.8,52.3 35.7,53.1 C35.1,55.8 36.2,58.7 38.4,60.4 C38.9,60.7 39.4,61.1 39.7,61.5 C40.5,62.1 40.5,63.2 40.5,64.1 Z M82.4,24.9 C82.4,25.1 82.4,25.2 82.2,25.3 C82.1,25.4 81.9,25.3 81.7,25.3 C80.8,24.9 79.8,24.5 78.9,24 C78.6,23.9 78.4,23.7 78.3,23.5 C78.2,23.1 78.4,22.7 78.3,22.3 C78.1,21.9 77.6,21.8 77.1,21.9 C75.4,22.2 73.7,23.3 72,22.9 C71.7,22.8 71.4,22.7 71.1,22.7 C69.9,22.7 69.4,24.3 68.6,25.2 C68.1,25.7 67.5,26.1 67,26.5 C65,28.3 64.9,31.5 66.2,33.9 C66.8,35 67.8,36.2 67.5,37.5 C67.4,37.9 67.3,38.3 67.4,38.6 C67.5,38.8 67.7,38.9 67.9,39 C68.8,39.5 69.9,39.9 70.8,39.3 C71.2,39 71.5,38.5 71.9,38.5 C72.4,38.4 72.9,38.8 73.4,38.7 C73.9,38.6 74.2,38.1 74.8,38 C75.3,37.9 75.8,38.3 76.2,38.6 C76.6,38.9 77.3,39.1 77.6,38.7 C77.3,40.1 77.1,41.6 77.8,42.7 C78.3,43.4 79.2,44 79.4,44.8 C79.6,45.7 79,46.7 79.1,47.6 C79.1,48 79.3,48.3 79.1,48.7 C79,49.1 78.5,49.3 78.3,49.7 C77.9,50.5 78.9,51.3 79.4,52.1 C79.9,52.9 79.7,53.9 79.8,54.8 C79.9,56.4 80.8,58 82.2,58.8 C80.6,61.6 78.6,64.2 76.3,66.5 C72.9,69.9 68.9,72.6 64.4,74.5 C59.8,76.4 54.9,77.4 49.9,77.4 C47.3,77.4 44.7,77.1 42.2,76.6 C42.4,76.1 43.2,75.8 43.6,75.3 C44,74.7 44.1,73.9 44.5,73.4 C45,72.8 46,72.6 46.5,71.9 C46.7,71.5 46.7,71.1 47,70.8 C47.3,70.4 47.9,70.4 48.3,70.2 C49.5,69.5 48.8,67.7 49.4,66.5 C50.1,65 52.3,65 53.4,63.9 C54.6,62.7 54.4,60.9 55,59.3 C55.4,58.1 56.4,57.1 57.6,56.5 C57.1,55.2 55.6,54.6 54.2,54.3 C54.1,54.3 54.1,54.3 54,54.2 C52.7,53.9 51.3,53.6 50.4,52.6 C49.6,51.8 49.3,50.5 48.3,49.9 C47.7,49.5 46.8,49.5 46.2,49.1 C45.6,48.7 45.3,48 44.7,47.5 C44.3,47.2 43.7,47.1 43.2,47 C42.4,46.8 41.6,46.6 40.7,46.5 C40.2,46.4 39.6,46.3 39.1,46.5 C38.5,46.8 38.2,47.4 37.8,47.8 C36.9,48.5 35.3,48.1 34.9,47 C34.8,46.7 34.8,46.3 34.6,46 C34.3,45.2 33.2,44.7 32.4,45 C32,44.1 33.3,43 32.5,42.3 C32.1,42 31.6,42 31.2,42.3 C30.4,43 29.1,43.8 28.4,42.5 C28.3,42.3 28.2,42 28.1,41.7 C28,41 28,40.3 28,39.6 C28,39.3 28.1,38.9 28.3,38.6 C28.8,37.7 30.1,37.8 31,37.6 C31.7,37.5 33.2,37 33.8,37.5 C34.4,38 34.8,39.3 35.3,40 C35.4,40.2 35.6,40.3 35.8,40.4 C36.9,40.5 36.2,38.4 36.1,38 C35.1,35.3 38.2,35.8 38.5,33.7 C38.5,33.5 38.5,33.3 38.6,33 C38.8,32.1 40.3,32.1 40.8,31.3 C41,30.8 41.2,30.1 41.7,30.2 C42.5,30.4 43.9,29.8 44.3,29 C44.8,28.1 45.4,27.2 46.3,26.7 C46.3,26.7 46.4,26.7 46.4,26.6 C47.3,26 47.7,24.8 47.1,23.8 C45.9,21.9 42.4,21.9 40.6,20.7 C40,20.3 39.4,20 38.7,20.1 C37.9,20.2 37.3,20.9 37.1,21.7 C36.8,23 37.8,24.8 37,25.9 C36.9,26.1 36.7,26.2 36.5,26.3 C35.8,26.5 35.6,25.7 35.3,25.3 C34.9,24.8 34.4,24.3 33.9,24 C32.9,23.5 31.5,24.3 30.8,23.1 C30.5,22.7 30.5,22.1 30.7,21.6 C31.1,20.8 31.9,20.7 32.7,20.4 C33.7,20 34.4,19 34.6,17.9 C34.6,17.7 34.6,17.6 34.6,17.4 C34.5,17.2 34.4,17.1 34.2,17 C31.3,15 27.7,16.5 24.5,16.8 C23.4,16.9 22.4,16.9 21.3,16.8 C22.1,15.9 22.9,15 23.7,14.2 C27.1,10.8 31.1,8.1 35.6,6.2 C40.2,4.3 45.1,3.3 50.1,3.3 C55.1,3.3 60,4.3 64.6,6.2 C66.9,7.2 69.1,8.4 71.2,9.8 C71,9.9 70.8,10.1 70.6,10.3 C69.7,11.2 68.8,12 67.4,12.1 C67.4,12.1 67.4,12.1 67.4,12.1 C66.9,12.1 66.6,12.7 66.9,13.2 C66.9,13.3 67,13.3 67,13.4 C67.5,14.2 67.1,15.2 66,15.2 C65.6,15.2 65.1,15 64.7,14.9 C62.2,14.2 62.5,17.7 63.7,18.9 C64.5,19.6 65.6,19.5 66.4,18.9 C67.1,18.4 67.5,17.7 68,17 C68.6,16.2 69.3,15.4 70.3,15.4 C71,15.4 71.7,15.9 72.5,15.9 C74,16 74.5,16.7 75.5,17.8 C75.6,17.9 75.7,18.1 75.7,18.2 C75.7,18.7 74.8,18.9 75.1,19.4 C76.1,19.4 77,19 77.6,18.2 C77,17.1 76,16.2 74.9,15.6 C74.6,15.4 74.4,15.1 74.5,14.7 C74.6,14.1 75.2,13.8 75.8,13.6 C76,13.8 76.2,14 76.5,14.3 C77.4,15.2 78.3,16.2 79.1,17.1 C79.3,18.4 79.7,19.8 81.2,19.9 C81.2,19.9 81.2,19.9 81.2,19.9 C82.3,21.5 83.2,23.2 84,24.9 C84,24.9 83.9,24.9 83.9,24.9 C83.2,24.2 82.6,24.4 82.4,24.9 Z" id="Shape"></path>
        </g>
    </g>
</svg>