<?xml version="1.0" encoding="UTF-8"?>
<svg width="48px" height="48px" viewBox="0 0 48 48" version="1.1" xmlns="http://www.w3.org/2000/svg" xmlns:xlink="http://www.w3.org/1999/xlink">
    <title>Infographic1</title>
    <g id="InfoGraphic1" stroke="none" stroke-width="1" fill="none" fill-rule="evenodd">
        <g id="Fishicon" fill="#FFFFFF" fill-rule="nonzero">
            <path d="M24,0 C10.7667692,0 0,10.7658462 0,24 C0,37.2341538 10.7667692,48 24,48 C37.2332308,48 48,37.2341538 48,24 C48,10.7658462 37.2332308,0 24,0 Z M24,46.1538462 C11.7849231,46.1538462 1.84615385,36.2150769 1.84615385,24 C1.84615385,11.7849231 11.7849231,1.84615385 24,1.84615385 C36.2150769,1.84615385 46.1538462,11.7849231 46.1538462,24 C46.1538462,36.2150769 36.2150769,46.1538462 24,46.1538462 Z" id="Shape"></path>
            <path d="M40.543626,30.2543445 C39.666572,28.1281844 38.3574049,26.1964482 36.6818497,24.5355116 C38.339172,22.8455413 39.623548,20.8866157 40.4688926,18.7375702 C40.5800919,18.4547472 40.4283911,18.1400211 40.1301062,18.0345431 C39.8318214,17.9292018 39.4996651,18.0728677 39.3884659,18.3556908 C38.5927033,20.3788322 37.3801058,22.2031093 35.8540174,23.7630767 C35.0645246,23.0696136 34.2059197,22.431144 33.2838239,21.8543625 C29.8736908,19.721166 25.8563941,18.6061327 21.6631101,18.6310675 C18.8617261,18.6573687 16.1569116,19.1901555 13.6237605,20.2147401 C11.1799002,21.2030497 9.0072997,22.6011111 7.16613485,24.369985 C7.05853898,24.4734135 6.99872346,24.6131855 7.00002067,24.7584226 C7.00131787,24.9036598 7.0635116,25.0424754 7.1729812,25.1441277 C9.0414594,26.8797323 11.2374096,28.2397424 13.6999352,29.1864483 C16.2498779,30.1668333 18.9619711,30.6538491 21.7597518,30.6321251 C25.9555582,30.6026131 29.9593062,29.4337477 33.3382344,27.2518428 C34.2462772,26.6655656 35.0903966,26.0190348 35.8654039,25.3189452 C37.4082119,26.8520649 38.644159,28.6510655 39.4696132,30.6523462 C39.5586158,30.8680842 39.7762578,31 40.0067277,31 C40.0765605,31 40.1475464,30.9879083 40.2165144,30.9623586 C40.5131417,30.8524401 40.6595096,30.5354597 40.543626,30.2543445 Z M21.6551232,29.9994085 C16.5246491,30.0367111 11.7315402,28.3084759 8.0833333,25.1176471 C11.6814814,21.8611212 16.4490845,20.0486074 21.5751611,20.0004481 C26.7644158,19.9669732 31.6239277,21.8108741 35.1666667,24.9132486 C31.672374,28.0606507 26.8428388,29.9628715 21.6551232,29.9994085 Z" id="Shape" stroke="#FFFFFF" transform="translate(23.791667, 24.500000) scale(-1, 1) translate(-23.791667, -24.500000) "></path>
        </g>
    </g>
</svg>
