<?xml version="1.0" encoding="UTF-8"?>
<svg width="48px" height="48px" viewBox="0 0 48 48" version="1.1" xmlns="http://www.w3.org/2000/svg" xmlns:xlink="http://www.w3.org/1999/xlink">
    <title>Infographic3</title>
    <g id="InfoGraphic3" stroke="none" stroke-width="1" fill="none" fill-rule="evenodd">
        <g id="TrendIcon" fill="#FFFFFF">
            <path d="M24,0 C10.7667692,0 0,10.7658462 0,24 C0,37.2341538 10.7667692,48 24,48 C37.2332308,48 48,37.2341538 48,24 C48,10.7658462 37.2332308,0 24,0 Z M24,46.1538462 C11.7849231,46.1538462 1.84615385,36.2150769 1.84615385,24 C1.84615385,11.7849231 11.7849231,1.84615385 24,1.84615385 C36.2150769,1.84615385 46.1538462,11.7849231 46.1538462,24 C46.1538462,36.2150769 36.2150769,46.1538462 24,46.1538462 Z" id="Shape" fill-rule="nonzero"></path>
            <g id="Group" transform="translate(14.000000, 14.000000)">
                <polygon id="Shape" points="1.64141415 0 0 0 0 20 19.6969697 20 19.6969697 18.3333333 1.64141415 18.3333333"></polygon>
                <polygon id="Shape" points="13.0320334 0 13.0320334 1.69182373 16.8522915 1.69182373 3.93939394 14.8034577 5.11742144 16 18.0307356 2.88794311 18.0307356 6.76729493 19.6969697 6.76729493 19.6969697 0"></polygon>
            </g>
        </g>
    </g>
</svg>
