<?xml version="1.0" encoding="UTF-8"?>
<svg width="48px" height="48px" viewBox="0 0 48 48" version="1.1" xmlns="http://www.w3.org/2000/svg" xmlns:xlink="http://www.w3.org/1999/xlink">
    <title>InfoGraphic1</title>
    <g id="Page-1" stroke="none" stroke-width="1" fill="none" fill-rule="evenodd">
        <g id="InfoGraphic1" fill="#FFFFFF" fill-rule="nonzero">
            <path d="M24,0 C10.7667692,0 0,10.7658462 0,24 C0,37.2341538 10.7667692,48 24,48 C37.2332308,48 48,37.2341538 48,24 C48,10.7658462 37.2332308,0 24,0 Z M24,46.1538462 C11.7849231,46.1538462 1.84615385,36.2150769 1.84615385,24 C1.84615385,11.7849231 11.7849231,1.84615385 24,1.84615385 C36.2150769,1.84615385 46.1538462,11.7849231 46.1538462,24 C46.1538462,36.2150769 36.2150769,46.1538462 24,46.1538462 Z" id="Shape"></path>
            <path d="M37.9668941,29.3690607 C37.2356531,27.5700022 36.1441391,25.9354562 34.7471501,24.5300483 C36.1289374,23.1000734 37.199782,21.442521 37.9045854,19.6240979 C37.9972975,19.3847861 37.8708174,19.1184794 37.6221233,19.0292288 C37.3734293,18.9400938 37.096495,19.0616573 37.003783,19.3009691 C36.3403184,21.012858 35.329319,22.5564771 34.0569475,23.8764495 C33.3987103,23.289673 32.6828512,22.7494295 31.9140566,22.2613837 C29.0708688,20.4563712 25.7214601,19.5128815 22.2253226,19.5339802 C19.8896773,19.5562351 17.6345466,20.0070547 15.5225398,20.8740109 C13.4849788,21.7102728 11.6735799,22.8932479 10.1385144,24.3899873 C10.0488067,24.4775037 9.99893569,24.5957723 10.0000172,24.7186653 C10.0010988,24.8415583 10.0529526,24.9590176 10.1442225,25.0450311 C11.7020604,26.5136196 13.5329271,27.6643974 15.5860502,28.4654563 C17.712057,29.2950128 19.9732563,29.7071031 22.3058973,29.6887212 C25.8041379,29.6637495 29.1422503,28.6747096 31.9594212,26.8284824 C32.7164991,26.3324017 33.420281,25.7853371 34.066441,25.1929536 C35.3527523,26.4902088 36.3832194,28.01244 37.0714393,29.7058314 C37.1456449,29.8883789 37.3271033,30 37.5192568,30 C37.5774797,30 37.636664,29.9897686 37.6941658,29.9681496 C37.9414779,29.8751416 38.0635117,29.6069274 37.9668941,29.3690607 Z M22.0244693,28.9995268 C17.8569457,29.0293689 13.9634665,27.6467807 11,25.0941177 C13.9228034,22.488897 17.795564,21.0388859 21.9595155,21.0003585 C26.174787,20.9735786 30.1222059,22.4486993 33,24.9305989 C30.1615592,27.4485206 26.2384906,28.9702972 22.0244693,28.9995268 Z" id="Shape" stroke="#FFFFFF" transform="translate(24.000000, 24.500000) scale(-1, 1) translate(-24.000000, -24.500000) "></path>
        </g>
    </g>
</svg>
