<?xml version="1.0" encoding="UTF-8"?>
<svg width="48px" height="48px" viewBox="0 0 48 48" version="1.1" xmlns="http://www.w3.org/2000/svg" xmlns:xlink="http://www.w3.org/1999/xlink">
    <title>InfoGraphic2</title>
    <g id="InfoGraphic2" stroke="none" stroke-width="1" fill="none" fill-rule="evenodd">
        <g id="ProductionIcon" fill="#FFFFFF">
            <path d="M24,0 C10.7667692,0 0,10.7658462 0,24 C0,37.2341538 10.7667692,48 24,48 C37.2332308,48 48,37.2341538 48,24 C48,10.7658462 37.2332308,0 24,0 Z M24,46.1538462 C11.7849231,46.1538462 1.84615385,36.2150769 1.84615385,24 C1.84615385,11.7849231 11.7849231,1.84615385 24,1.84615385 C36.2150769,1.84615385 46.1538462,11.7849231 46.1538462,24 C46.1538462,36.2150769 36.2150769,46.1538462 24,46.1538462 Z" id="Shape" fill-rule="nonzero"></path>
            <path d="M35.2327538,15.3105921 L21.0459845,31.2705921 L12.4992153,24.4333613 C12.1022922,24.1148998 11.5198307,24.1804382 11.2022922,24.5773613 C10.8838307,24.9761306 10.9484461,25.5567459 11.3462922,25.8752075 L20.5770615,33.2598229 C20.7469076,33.3955152 20.9509076,33.4619767 21.1539845,33.4619767 C21.4087538,33.4619767 21.6625999,33.3567459 21.8444461,33.1518229 L36.6136768,16.5364382 C36.9524461,16.1561306 36.9182922,15.5718229 36.5370615,15.2339767 C36.1549076,14.8942844 35.5724461,14.9284382 35.2327538,15.3105921 Z" id="Shape"></path>
        </g>
    </g>
</svg>
