<?xml version="1.0" encoding="UTF-8"?>
<svg width="48px" height="49px" viewBox="0 0 48 49" version="1.1" xmlns="http://www.w3.org/2000/svg" xmlns:xlink="http://www.w3.org/1999/xlink">
    <!-- Generator: Sketch 51.2 (57519) - http://www.bohemiancoding.com/sketch -->
    <title>ProductionIcon</title>
    <desc>Created with Sketch.</desc>
    <defs></defs>
    <g id="SCT" stroke="none" stroke-width="1" fill="none" fill-rule="evenodd">
        <g id="SCT-ALTERNATIVES" transform="translate(-355.000000, -204.000000)" fill="#FFFFFF" fill-rule="nonzero">
            <g id="INFOBOX2-b" transform="translate(340.000000, 163.000000)">
                <g id="ProductionIcon" transform="translate(15.000000, 41.328223)">
                    <path d="M24,0 C10.7667692,0 0,10.7658462 0,24 C0,37.2341538 10.7667692,48 24,48 C37.2332308,48 48,37.2341538 48,24 C48,10.7658462 37.2332308,0 24,0 Z M24,46.1538462 C11.7849231,46.1538462 1.84615385,36.2150769 1.84615385,24 C1.84615385,11.7849231 11.7849231,1.84615385 24,1.84615385 C36.2150769,1.84615385 46.1538462,11.7849231 46.1538462,24 C46.1538462,36.2150769 36.2150769,46.1538462 24,46.1538462 Z" id="Shape"></path>
                    <path d="M35.3095385,14.1563077 L21.1227692,30.1163077 L12.576,23.2790769 C12.1790769,22.9606154 11.5966154,23.0261538 11.2790769,23.4230769 C10.9606154,23.8218462 11.0252308,24.4024615 11.4230769,24.7209231 L20.6538462,32.1055385 C20.8236923,32.2412308 21.0276923,32.3076923 21.2307692,32.3076923 C21.4855385,32.3076923 21.7393846,32.2024615 21.9212308,31.9975385 L36.6904615,15.3821538 C37.0292308,15.0018462 36.9950769,14.4175385 36.6138462,14.0796923 C36.2316923,13.74 35.6492308,13.7741538 35.3095385,14.1563077 Z" id="Shape"></path>
                </g>
            </g>
        </g>
    </g>
</svg>