<?xml version="1.0" encoding="UTF-8"?>
<svg width="24px" height="22px" viewBox="0 0 24 22" version="1.1" xmlns="http://www.w3.org/2000/svg" xmlns:xlink="http://www.w3.org/1999/xlink">
    <!-- Generator: Sketch 51.2 (57519) - http://www.bohemiancoding.com/sketch -->
    <title>views</title>
    <desc>Created with Sketch.</desc>
    <defs></defs>
    <g id="Page-1" stroke="none" stroke-width="1" fill="none" fill-rule="evenodd">
        <g id="views" transform="translate(1.000000, 0.000000)" stroke="#000000">
            <path d="M5.5,9.5 L11,12.5 L16.5,9.5 L16.5,3.5 L11,0.5 L5.5,3.5 L5.5,9.5 Z M5.5,3.5 L11,6.5 L16.5,3.5 L5.5,3.5 Z M11,6.5 L11,12.5 L11,6.5 Z M0,18.5 L5.5,21.5 L11,18.5 L11,12.5 L5.5,9.5 L0,12.5 L0,18.5 Z M0,12.5 L5.5,15.5 L11,12.5 L0,12.5 Z M5.5,15.5 L5.5,21.5 L5.5,15.5 Z M11,18.5 L16.5,21.5 L22,18.5 L22,12.5 L16.5,9.5 L11,12.5 L11,18.5 Z M11,12.5 L16.5,15.5 L22,12.5 L11,12.5 Z M16.5,15.5 L16.5,21.5 L16.5,15.5 Z" id="Stack"></path>
        </g>
    </g>
</svg>